<svg id="visual" viewBox="0 0 900 600" width="900" height="600" xmlns="http://www.w3.org/2000/svg" xmlns:xlink="http://www.w3.org/1999/xlink" version="1.1"><g transform="translate(427.89476959835633 378.37055475727726)"><path d="M171.8 -327.5C202 -280.2 191.5 -192.4 228.4 -131C265.3 -69.7 349.7 -34.8 381.1 18.2C412.6 71.2 391.2 142.3 334.9 170.2C278.7 198 187.6 182.6 126 175.1C64.3 167.7 32.2 168.2 -4.5 176C-41.2 183.8 -82.3 198.9 -147.3 208.2C-212.2 217.6 -301 221.3 -334.2 185.7C-367.5 150 -345.2 75 -329.2 9.3C-313.2 -56.5 -303.4 -113 -272.1 -152C-240.7 -190.9 -187.9 -212.4 -138.9 -248.8C-90 -285.2 -45 -336.6 12.9 -359C70.8 -381.4 141.7 -374.7 171.8 -327.5" fill="#ffd16d"></path></g></svg>